<svg width="891" height="612" viewBox="0 0 891 612" fill="none" xmlns="http://www.w3.org/2000/svg">
<g id="undraw_source_code_re_wd9m 1" clip-path="url(#clip0_24_2)">
<path id="Vector" d="M312.076 549.793L312.355 548.681C312.417 548.437 318.722 524.104 337.752 510.891C356.783 497.678 381.784 500.275 382.034 500.303L383.174 500.429L382.894 501.541C382.832 501.785 376.528 526.117 357.498 539.331C338.467 552.544 313.465 549.947 313.215 549.919L312.076 549.793ZM338.892 512.534C322.802 523.705 316.1 543.128 314.622 548.024C319.728 548.348 340.282 548.848 356.357 537.687C372.43 526.528 379.145 507.096 380.627 502.197C375.519 501.874 354.966 501.374 338.892 512.534V512.534Z" fill="#F1F1F1"/>
<path id="Vector_2" d="M345.802 518.439C336.204 539.408 313.592 549.618 313.592 549.618C313.592 549.618 306.542 525.831 316.14 504.862C325.738 483.893 348.349 473.683 348.349 473.683C348.349 473.683 355.4 497.47 345.802 518.439Z" fill="#F1F1F1"/>
<path id="Vector_3" d="M102.159 542.211C91.8093 510.381 90.962 474.208 108.453 444.678C115.889 432.124 126.339 421.284 139.157 414.198C153.942 406.024 171.009 403.351 187.706 402.982C224.012 402.181 260.072 410.951 296.381 406.417C312.672 404.383 328.922 399.82 342.886 390.971C354.96 383.319 365.44 372.612 371.624 359.627C377.65 347.235 379.014 333.088 375.466 319.773C372.034 307.18 363.957 295.406 352.147 289.377C341.416 283.899 328.243 283.754 317.155 288.284C305.227 293.158 296.638 303.24 294.811 316.144C292.532 332.241 299.779 348.167 307.848 361.64C315.614 374.609 325.029 386.781 336.469 396.723C347.549 406.353 360.616 413.944 374.988 417.317C388.623 420.517 403.329 420.234 416.583 415.508C430.258 410.617 441.656 400.868 448.607 388.116C456.365 374.083 459.074 357.869 458.808 341.984C458.493 323.223 454.534 304.65 450.999 286.292C447.415 267.674 443.563 249.109 439.443 230.598C437.435 221.575 435.364 212.567 433.229 203.573C432.784 201.696 429.891 202.491 430.337 204.371C438.825 240.168 446.76 276.251 452.782 312.554C455.64 329.787 457.43 347.661 453.846 364.928C450.824 379.489 444.041 393.605 432.441 403.239C410.306 421.623 377.288 419.295 353.596 405.422C340.819 397.941 329.98 387.462 321.006 375.753C311.729 363.649 303.089 349.806 299.173 334.947C297.151 327.274 296.576 319.085 298.91 311.412C300.713 305.51 304.249 300.286 309.059 296.42C318.068 289.111 330.805 286.486 342.064 288.949C354.749 291.724 364.562 301.27 369.829 312.882C375.297 325.15 375.935 339.03 371.615 351.749C367.073 365.173 357.654 376.647 346.33 384.991C333.44 394.49 318.078 399.877 302.39 402.532C267.195 408.489 231.839 400.699 196.578 399.984C180.509 399.658 164.039 400.895 148.852 406.511C135.322 411.551 123.373 420.093 114.225 431.263C94.1592 455.606 88.6044 487.909 93.3543 518.531C94.6668 526.835 96.6438 535.021 99.2662 543.009C99.8607 544.837 102.758 544.054 102.159 542.211L102.159 542.211Z" fill="#E5E5E5"/>
<path id="Vector_4" d="M109.106 534.972H90.1063V549.972H109.106V534.972Z" fill="#6C63FF"/>
<path id="Vector_5" d="M382 550.972H1C0.734784 550.972 0.480429 550.867 0.292892 550.679C0.105356 550.492 0 550.237 0 549.972C0 549.707 0.105356 549.452 0.292892 549.265C0.480429 549.077 0.734784 548.972 1 548.972H382C382.265 548.972 382.52 549.077 382.707 549.265C382.895 549.452 383 549.707 383 549.972C383 550.237 382.895 550.492 382.707 550.679C382.52 550.867 382.265 550.972 382 550.972Z" fill="#CBCBCB"/>
<path id="Vector_6" d="M231 611.972H114C113.735 611.972 113.48 611.867 113.293 611.679C113.105 611.492 113 611.237 113 610.972C113 610.707 113.105 610.452 113.293 610.265C113.48 610.077 113.735 609.972 114 609.972H231C231.265 609.972 231.52 610.077 231.707 610.265C231.895 610.452 232 610.707 232 610.972C232 611.237 231.895 611.492 231.707 611.679C231.52 611.867 231.265 611.972 231 611.972Z" fill="#CBCBCB"/>
<path id="Vector_7" d="M120.421 337.489C121.653 335.9 122.521 334.061 122.965 332.1C123.409 330.14 123.417 328.106 122.99 326.142C122.562 324.178 121.709 322.331 120.491 320.732C119.273 319.133 117.719 317.821 115.939 316.888L123.187 268.567L100.151 279.246L96.7999 323.495C95.4302 326.59 95.2432 330.079 96.2744 333.303C97.3056 336.526 99.4834 339.259 102.395 340.984C105.307 342.709 108.75 343.306 112.072 342.662C115.395 342.017 118.365 340.177 120.421 337.489V337.489Z" fill="#FFB7B7"/>
<path id="Vector_8" d="M190.07 594.085L173.49 594.084L165.603 530.133L190.073 530.134L190.07 594.085Z" fill="#FFB7B7"/>
<path id="Vector_9" d="M194.299 610.157L140.838 610.155V609.479C140.838 603.96 143.031 598.668 146.933 594.765C150.835 590.863 156.128 588.671 161.646 588.671H161.648L194.3 588.672L194.299 610.157Z" fill="#2F2E41"/>
<path id="Vector_10" d="M249.331 555.947L233.847 561.911L203.476 505.027L226.328 496.225L249.331 555.947Z" fill="#FFB7B7"/>
<path id="Vector_11" d="M259.061 569.435L209.136 588.664L208.892 588.033C206.908 582.879 207.051 577.148 209.292 572.1C211.532 567.052 215.686 563.101 220.839 561.116L220.84 561.115L251.333 549.37L259.061 569.435Z" fill="#2F2E41"/>
<path id="Vector_12" d="M141.884 299.94L137.199 326.966L212.158 554.969L252.175 542.753L223.581 458.657L194.687 333.962L194.061 289.516L141.884 299.94Z" fill="#2F2E41"/>
<path id="Vector_13" d="M158.371 581.952L171.87 489.638L169.693 472.216L194.061 418.738L191.253 291.986L244.39 299.94L223.581 463.201L196.481 559.086L191.037 579.774L158.371 581.952Z" fill="#2F2E41"/>
<path id="Vector_14" d="M166.537 80.5363C183.375 80.5363 197.025 66.8864 197.025 50.0485C197.025 33.2105 183.375 19.5607 166.537 19.5607C149.699 19.5607 136.05 33.2105 136.05 50.0485C136.05 66.8864 149.699 80.5363 166.537 80.5363Z" fill="#FFB8B8"/>
<path id="Vector_15" d="M196.629 17.6085C191.764 9.70899 184.15 3.88794 175.251 1.26568L168.715 6.49447L171.256 0.395672C169.119 0.0696774 166.957 -0.0553146 164.796 0.0223204L158.915 7.58331L161.35 0.281308C156.247 0.915445 151.33 2.60003 146.911 5.22882C142.492 7.85761 138.665 11.3736 135.672 15.555C128.187 26.3474 128.688 41.3494 136.05 52.2262C138.071 46.0159 138.759 40.1953 140.78 33.985C142.368 34.2015 143.978 34.2093 145.568 34.0083L148.027 28.2715L148.714 33.7656C156.334 33.1016 167.637 31.6441 174.862 30.3085L174.159 26.0938L178.362 29.5962C180.576 29.0867 181.89 28.6246 181.781 28.2715C187.154 36.9334 192.478 42.466 197.851 51.1279C199.891 38.91 203.491 28.754 196.629 17.6085Z" fill="#2F2E41"/>
<path id="Vector_16" d="M225.768 88.3964C225.768 88.3964 167.708 83.2351 142.296 104.326L134.416 293.407L138.762 308.162C138.762 308.162 159.544 312.309 184.762 305.155C209.98 298 244.39 308.162 244.39 308.162L248.09 192.382L225.768 88.3964Z" fill="#CBCBCB"/>
<path id="Vector_17" d="M140.294 296.911L158.413 112.968L154.993 97.1072C154.993 97.1072 120.037 106.98 107.299 125.726L130.288 285.126V299.94L140.294 296.911Z" fill="#3F3D56"/>
<path id="Vector_18" d="M221.524 284.696C221.524 284.696 172.913 119.799 190.358 89.6705C190.358 89.6705 225.447 79.7756 242.213 91.9802L251.499 193.258C251.499 193.258 270.129 251.165 255.843 264.783L258.978 278.401C258.978 278.401 239.919 279.524 235.838 280.051C231.757 280.578 221.524 284.696 221.524 284.696Z" fill="#3F3D56"/>
<path id="Vector_19" d="M118.137 124.635L107.299 125.726C107.299 125.726 103.404 127.842 103.883 137.246C104.362 146.65 92.6375 284.457 98.4995 293.406L95.1063 305.078L119.061 311.611L120.484 299.94C120.484 299.94 130.188 269.773 131.43 262.11C132.672 254.446 118.137 124.635 118.137 124.635Z" fill="#3F3D56"/>
<path id="Vector_20" d="M237.076 282.403C237.032 280.393 237.428 278.399 238.238 276.559C239.048 274.719 240.251 273.079 241.763 271.755C243.275 270.43 245.059 269.454 246.99 268.893C248.92 268.333 250.95 268.203 252.936 268.512L275.859 225.362L288.02 247.65L264.388 285.209C263.647 288.512 261.722 291.428 258.975 293.405C256.228 295.382 252.852 296.283 249.485 295.937C246.119 295.591 242.996 294.023 240.709 291.528C238.422 289.034 237.129 285.787 237.076 282.403V282.403Z" fill="#FFB7B7"/>
<path id="Vector_21" d="M228.216 97.3301L241.124 91.9802C241.124 91.9802 262.142 103.404 263.827 114.683C265.511 125.962 307.106 198.977 307.106 198.977C307.106 198.977 292.235 263.979 278.873 267.923L271.611 275.936L251.549 263.009L258.049 256.509C258.049 256.509 257.878 222.123 263.873 215.963C263.873 215.963 247.001 172.782 239.379 168.427C231.757 164.071 228.216 97.3301 228.216 97.3301Z" fill="#3F3D56"/>
</g>
<defs>
<clipPath id="clip0_24_2">
<rect width="890.106" height="611.972" fill="white"/>
</clipPath>
</defs>
</svg>
