<svg width="463" height="198" viewBox="0 0 463 198" fill="none" xmlns="http://www.w3.org/2000/svg">
<path d="M3.97864 194.941H342.866C407.064 194.941 459.106 158.35 459.106 94.1524V94.1522C459.106 29.9546 407.064 3.19696 342.866 3.19696H236.459C108.064 3.19696 3.97864 66.5451 3.97864 194.94V194.941Z" fill="white"/>
<path d="M342.866 197.94H0.978638V194.94C0.978638 133.509 24.9352 82.8813 70.2584 48.5297C111.977 16.9106 169.448 0.197205 236.459 0.197205H342.866C377.239 0.197205 406.255 7.78558 426.78 22.1425C450.221 38.539 462.106 62.7665 462.106 94.1523C462.106 125.619 449.952 152.173 426.958 170.944C405.633 188.353 375.769 197.94 342.866 197.94ZM6.99719 191.94H342.866C410.599 191.94 456.106 152.643 456.106 94.1523C456.106 14.7675 376.914 6.1972 342.866 6.1972H236.459C126.32 6.1972 8.68587 55.0615 6.99713 191.94H6.99719Z" fill="#E5E5E5"/>
<path d="M199.172 63.1181H159.145V72.7544H199.172V63.1181Z" fill="#6C63FF"/>
<path d="M337.786 63.1181H323.703V72.7544H337.786V63.1181Z" fill="#6C63FF"/>
<path d="M365.954 63.1181H351.87V72.7544H365.954V63.1181Z" fill="#6C63FF"/>
<path d="M308.878 63.1181H213.256V72.7544H308.878V63.1181Z" fill="#6C63FF"/>
<path d="M148.767 125.383H108.74V135.019H148.767V125.383Z" fill="#6C63FF"/>
<path d="M287.381 125.383H273.297V135.019H287.381V125.383Z" fill="#6C63FF"/>
<path d="M315.549 125.383H301.465V135.019H315.549V125.383Z" fill="#6C63FF"/>
<path d="M258.472 125.383H162.851V135.019H258.472V125.383Z" fill="#6C63FF"/>
<path d="M314.066 84.6144H274.039V94.2506H314.066V84.6144Z" fill="#6C63FF"/>
<path d="M368.177 84.6144H328.15V94.2506H368.177V84.6144Z" fill="#6C63FF"/>
<path d="M396.345 84.6144H382.261V94.2506H396.345V84.6144Z" fill="#6C63FF"/>
<path d="M150.991 84.6144H136.907V94.2506H150.991V84.6144Z" fill="#6C63FF"/>
<path d="M260.696 84.6144H165.075V94.2506H260.696V84.6144Z" fill="#6C63FF"/>
<path d="M231.046 105.369H191.019V115.006H231.046V105.369Z" fill="#6C63FF"/>
<path d="M176.935 105.369H136.907V115.006H176.935V105.369Z" fill="#6C63FF"/>
<path d="M396.345 105.369H382.261V115.006H396.345V105.369Z" fill="#6C63FF"/>
<path d="M368.177 105.369H354.094V115.006H368.177V105.369Z" fill="#6C63FF"/>
</svg>
